<svg width="24" height="24" viewBox="0 0 24 24" fill="none" xmlns="http://www.w3.org/2000/svg">
<path d="M7.68004 22.0799H16.32C19.501 22.0799 22.08 19.5009 22.08 16.3199V7.67992C22.08 4.49896 19.501 1.91992 16.32 1.91992H7.68004C4.49908 1.91992 1.92004 4.49896 1.92004 7.67992V16.3199C1.92004 19.5009 4.49908 22.0799 7.68004 22.0799Z" stroke="black" stroke-width="0.96" stroke-miterlimit="10"/>
<path d="M12 16.8C14.6509 16.8 16.8 14.6509 16.8 12C16.8 9.34898 14.6509 7.19995 12 7.19995C9.34898 7.19995 7.19995 9.34898 7.19995 12C7.19995 14.6509 9.34898 16.8 12 16.8Z" stroke="black" stroke-width="0.96" stroke-miterlimit="10"/>
<path d="M17.76 7.20003C18.2902 7.20003 18.72 6.77022 18.72 6.24003C18.72 5.70984 18.2902 5.28003 17.76 5.28003C17.2299 5.28003 16.8 5.70984 16.8 6.24003C16.8 6.77022 17.2299 7.20003 17.76 7.20003Z" fill="black"/>
</svg>
