<svg width="24" height="24" viewBox="0 0 24 24" fill="none" xmlns="http://www.w3.org/2000/svg">
<path d="M5.74996 3C4.24007 3 2.99996 4.24011 2.99996 5.75V7.33008C2.99855 7.42946 3.01691 7.52813 3.05397 7.62036C3.09103 7.71259 3.14605 7.79653 3.21584 7.8673C3.28562 7.93808 3.36877 7.99428 3.46047 8.03264C3.55216 8.071 3.65056 8.09076 3.74996 8.09076C3.84935 8.09076 3.94775 8.071 4.03944 8.03264C4.13114 7.99428 4.21429 7.93808 4.28408 7.8673C4.35386 7.79653 4.40888 7.71259 4.44594 7.62036C4.483 7.52813 4.50136 7.42946 4.49996 7.33008V5.75C4.49996 5.05089 5.05084 4.5 5.74996 4.5H18.25C18.9491 4.5 19.5 5.05089 19.5 5.75V12.5C19.4986 12.5994 19.5169 12.6981 19.554 12.7903C19.591 12.8825 19.6461 12.9664 19.7158 13.0372C19.7856 13.108 19.8688 13.1642 19.9605 13.2026C20.0522 13.2409 20.1506 13.2607 20.25 13.2607C20.3493 13.2607 20.4478 13.2409 20.5394 13.2026C20.6311 13.1642 20.7143 13.108 20.7841 13.0372C20.8539 12.9664 20.9089 12.8825 20.9459 12.7903C20.983 12.6981 21.0014 12.5994 21 12.5V5.75C21 4.24011 19.7598 3 18.25 3H5.74996ZM12.081 6.00098C10.3215 6.01298 8.96576 6.60896 8.04976 7.77246C7.24276 8.79896 6.82598 10.2199 6.81148 12.0059C6.82548 13.7814 7.24226 15.2015 8.04976 16.2275C8.96526 17.391 10.3218 17.987 12.0908 17.999C13.6548 17.9885 14.7603 17.5751 15.6748 16.6611C16.8898 15.4471 16.8517 13.9243 16.4502 12.9883C16.1602 12.3123 15.6118 11.7653 14.8623 11.4062C14.8448 11.3973 14.8265 11.3894 14.8085 11.3809C14.6765 9.69086 13.7016 8.71948 12.0986 8.70898C11.1266 8.70898 10.3164 9.12674 9.81636 9.88574C9.76036 9.97074 9.78264 10.0851 9.86714 10.1436L10.7011 10.7158C10.7426 10.7443 10.7937 10.7546 10.8427 10.7451C10.8917 10.7356 10.9363 10.7061 10.9638 10.6641C11.2658 10.2066 11.7478 10.1113 12.1123 10.1113C12.5553 10.1138 12.8843 10.2366 13.0908 10.4766C13.2023 10.6061 13.2876 10.7754 13.3466 10.9814C12.9681 10.9359 12.5655 10.9252 12.1445 10.9492C10.5915 11.0387 9.59259 11.9588 9.66109 13.2393C9.69559 13.8923 10.0206 14.4548 10.5761 14.8223C11.0351 15.1248 11.6248 15.2747 12.2373 15.2402C13.0478 15.1957 13.6853 14.884 14.1328 14.3135C14.4193 13.949 14.6126 13.5012 14.7216 12.9512C14.9326 13.1217 15.0875 13.3214 15.1845 13.5479C15.412 14.0769 15.424 14.9481 14.708 15.6631C14.061 16.3096 13.2763 16.5901 12.0878 16.5986C10.7668 16.5886 9.77184 16.1695 9.12984 15.3535C8.52034 14.5785 8.20481 13.4505 8.19331 12.002C8.20481 10.5505 8.52034 9.42148 9.12984 8.64648C9.77184 7.83048 10.7669 7.41087 12.0849 7.40137C13.4174 7.41137 14.4311 7.83327 15.0986 8.65527C15.4251 9.05727 15.6753 9.56642 15.8418 10.1699C15.8693 10.2689 15.9722 10.3273 16.0712 10.3018L17.0488 10.041C17.0973 10.0285 17.138 9.99613 17.163 9.95312C17.1875 9.90912 17.1936 9.85807 17.1806 9.80957C16.9651 9.01707 16.623 8.32917 16.163 7.76367C15.222 6.60617 13.8525 6.01298 12.081 6.00098ZM3.73824 9.44141C3.53949 9.44451 3.35011 9.52637 3.21168 9.66901C3.07326 9.81165 2.9971 10.0034 2.99996 10.2021V18.25C2.99996 19.7599 4.24007 21 5.74996 21H18.25C19.7598 21 21 19.7599 21 18.25V16.3936C21.0014 16.2942 20.983 16.1955 20.9459 16.1033C20.9089 16.011 20.8539 15.9271 20.7841 15.8563C20.7143 15.7856 20.6311 15.7293 20.5394 15.691C20.4478 15.6526 20.3493 15.6329 20.25 15.6329C20.1506 15.6329 20.0522 15.6526 19.9605 15.691C19.8688 15.7293 19.7856 15.7856 19.7158 15.8563C19.6461 15.9271 19.591 16.011 19.554 16.1033C19.5169 16.1955 19.4986 16.2942 19.5 16.3936V18.25C19.5 18.9491 18.9491 19.5 18.25 19.5H5.74996C5.05084 19.5 4.49996 18.9491 4.49996 18.25V10.2021C4.5014 10.1018 4.48267 10.0021 4.44489 9.9091C4.4071 9.81609 4.35103 9.73161 4.28 9.66067C4.20897 9.58972 4.12441 9.53376 4.03135 9.4961C3.93829 9.45844 3.83862 9.43984 3.73824 9.44141ZM12.5615 12.3369C12.86 12.3369 13.1446 12.3602 13.4101 12.4072C13.2681 13.6142 12.7021 13.8118 12.1611 13.8418C11.7901 13.8563 11.4462 13.7636 11.2402 13.5791C11.1147 13.4666 11.0465 13.3266 11.038 13.1631C11.019 12.8026 11.3196 12.3992 12.2216 12.3467C12.3366 12.3402 12.45 12.3369 12.5615 12.3369Z" fill="black"/>
</svg>
