<svg width="20" height="20" viewBox="0 0 20 20" fill="none" xmlns="http://www.w3.org/2000/svg">
<path d="M7.50004 14.1667C6.57957 14.1667 5.83337 14.9129 5.83337 15.8333C5.83337 16.7538 6.57957 17.5 7.50004 17.5C8.42052 17.5 9.16671 16.7538 9.16671 15.8333C9.16671 14.9129 8.42052 14.1667 7.50004 14.1667ZM7.50004 14.1667H14.1667M7.50004 14.1667L6.66671 10.8333M14.1667 14.1667C13.2462 14.1667 12.5 14.9129 12.5 15.8333C12.5 16.7538 13.2462 17.5 14.1667 17.5C15.0872 17.5 15.8334 16.7538 15.8334 15.8333C15.8334 14.9129 15.0872 14.1667 14.1667 14.1667ZM6.66671 10.8333H15L16.6667 5H5.00004M6.66671 10.8333L5.00004 5M5.00004 5L4.34004 2.5H3.33337" stroke="#2F2F38" stroke-width="2" stroke-linecap="round" stroke-linejoin="round"/>
</svg>
