<svg width="18" height="18" viewBox="0 0 18 18" fill="none" xmlns="http://www.w3.org/2000/svg">
<path d="M6.75 12.75C5.92157 12.75 5.25 13.4216 5.25 14.25C5.25 15.0784 5.92157 15.75 6.75 15.75C7.57843 15.75 8.25 15.0784 8.25 14.25C8.25 13.4216 7.57843 12.75 6.75 12.75ZM6.75 12.75H12.75M6.75 12.75L6 9.75M12.75 12.75C11.9216 12.75 11.25 13.4216 11.25 14.25C11.25 15.0784 11.9216 15.75 12.75 15.75C13.5784 15.75 14.25 15.0784 14.25 14.25C14.25 13.4216 13.5784 12.75 12.75 12.75ZM6 9.75H13.5L15 4.5H4.5M6 9.75L4.5 4.5M4.5 4.5L3.906 2.25H3" stroke="#A9A9A9" stroke-linecap="round" stroke-linejoin="round"/>
</svg>
