<svg width="24" height="24" viewBox="0 0 24 24" fill="none" xmlns="http://www.w3.org/2000/svg">
<path d="M5.75008 3C4.24019 3 3.00008 4.24011 3.00008 5.75V7.33008C2.99867 7.42946 3.01703 7.52813 3.05409 7.62036C3.09115 7.71259 3.14617 7.79653 3.21596 7.8673C3.28574 7.93808 3.36889 7.99428 3.46059 8.03264C3.55228 8.07101 3.65068 8.09076 3.75008 8.09076C3.84947 8.09076 3.94787 8.07101 4.03957 8.03264C4.13126 7.99428 4.21441 7.93808 4.2842 7.8673C4.35398 7.79653 4.409 7.71259 4.44606 7.62036C4.48312 7.52813 4.50148 7.42946 4.50008 7.33008V5.75C4.50008 5.05089 5.05096 4.5 5.75008 4.5H18.2501C18.9492 4.5 19.5001 5.05089 19.5001 5.75V12.5C19.4987 12.5994 19.517 12.6981 19.5541 12.7903C19.5912 12.8825 19.6462 12.9664 19.716 13.0372C19.7857 13.108 19.8689 13.1642 19.9606 13.2026C20.0523 13.2409 20.1507 13.2607 20.2501 13.2607C20.3495 13.2607 20.4479 13.2409 20.5396 13.2026C20.6313 13.1642 20.7144 13.108 20.7842 13.0372C20.854 12.9664 20.909 12.8825 20.9461 12.7903C20.9831 12.6981 21.0015 12.5994 21.0001 12.5V5.75C21.0001 4.24011 19.76 3 18.2501 3H5.75008ZM12.0811 6.00098C10.3216 6.01298 8.96588 6.60896 8.04988 7.77246C7.24288 8.79896 6.8261 10.2199 6.8116 12.0059C6.8256 13.7814 7.24238 15.2015 8.04988 16.2275C8.96538 17.391 10.3219 17.987 12.0909 17.999C13.6549 17.9885 14.7604 17.5751 15.6749 16.6611C16.8899 15.4471 16.8518 13.9243 16.4503 12.9883C16.1603 12.3123 15.6119 11.7652 14.8624 11.4062C14.8449 11.3973 14.8267 11.3894 14.8087 11.3809C14.6767 9.69086 13.7017 8.71948 12.0987 8.70898C11.1267 8.70898 10.3165 9.12674 9.81648 9.88574C9.76048 9.97074 9.78276 10.0851 9.86726 10.1436L10.7012 10.7158C10.7427 10.7443 10.7939 10.7546 10.8429 10.7451C10.8919 10.7356 10.9364 10.7061 10.9639 10.6641C11.2659 10.2066 11.7479 10.1113 12.1124 10.1113C12.5554 10.1138 12.8844 10.2366 13.0909 10.4766C13.2024 10.6061 13.2878 10.7754 13.3468 10.9814C12.9683 10.9359 12.5656 10.9252 12.1446 10.9492C10.5916 11.0387 9.59271 11.9588 9.66121 13.2393C9.69571 13.8923 10.0207 14.4548 10.5762 14.8223C11.0352 15.1248 11.6249 15.2747 12.2374 15.2402C13.0479 15.1957 13.6854 14.884 14.1329 14.3135C14.4194 13.949 14.6128 13.5012 14.7218 12.9512C14.9328 13.1217 15.0876 13.3214 15.1846 13.5479C15.4121 14.0769 15.4241 14.9481 14.7081 15.6631C14.0611 16.3096 13.2765 16.5901 12.088 16.5986C10.767 16.5886 9.77196 16.1695 9.12996 15.3535C8.52046 14.5785 8.20494 13.4505 8.19344 12.002C8.20494 10.5505 8.52046 9.42148 9.12996 8.64648C9.77196 7.83048 10.767 7.41087 12.085 7.40137C13.4175 7.41137 14.4312 7.83327 15.0987 8.65527C15.4252 9.05727 15.6754 9.56642 15.8419 10.1699C15.8694 10.2689 15.9724 10.3273 16.0714 10.3018L17.0489 10.041C17.0974 10.0285 17.1382 9.99613 17.1632 9.95312C17.1877 9.90913 17.1937 9.85807 17.1807 9.80957C16.9652 9.01707 16.6232 8.32917 16.1632 7.76367C15.2222 6.60617 13.8526 6.01298 12.0811 6.00098ZM3.73836 9.44141C3.53962 9.44451 3.35023 9.52637 3.21181 9.66901C3.07338 9.81165 2.99723 10.0034 3.00008 10.2021V18.25C3.00008 19.7599 4.24019 21 5.75008 21H18.2501C19.76 21 21.0001 19.7599 21.0001 18.25V16.3936C21.0015 16.2942 20.9831 16.1955 20.9461 16.1033C20.909 16.011 20.854 15.9271 20.7842 15.8563C20.7144 15.7856 20.6313 15.7293 20.5396 15.691C20.4479 15.6526 20.3495 15.6329 20.2501 15.6329C20.1507 15.6329 20.0523 15.6526 19.9606 15.691C19.8689 15.7293 19.7857 15.7856 19.716 15.8563C19.6462 15.9271 19.5912 16.011 19.5541 16.1033C19.517 16.1955 19.4987 16.2942 19.5001 16.3936V18.25C19.5001 18.9491 18.9492 19.5 18.2501 19.5H5.75008C5.05096 19.5 4.50008 18.9491 4.50008 18.25V10.2021C4.50152 10.1018 4.48279 10.0021 4.44501 9.9091C4.40723 9.81609 4.35116 9.73161 4.28012 9.66067C4.20909 9.58972 4.12454 9.53376 4.03147 9.4961C3.93841 9.45844 3.83874 9.43984 3.73836 9.44141ZM12.5616 12.3369C12.8601 12.3369 13.1447 12.3602 13.4102 12.4072C13.2682 13.6142 12.7022 13.8118 12.1612 13.8418C11.7902 13.8563 11.4463 13.7636 11.2403 13.5791C11.1148 13.4666 11.0467 13.3266 11.0382 13.1631C11.0192 12.8026 11.3198 12.3992 12.2218 12.3467C12.3368 12.3402 12.4501 12.3369 12.5616 12.3369Z" fill="#A9A9A9"/>
</svg>
