<svg width="24" height="24" viewBox="0 0 24 24" fill="none" xmlns="http://www.w3.org/2000/svg">
<g clip-path="url(#clip0_93_209)">
<path d="M24.0301 5.01001C23.1432 5.40376 22.1926 5.66813 21.1932 5.78813C22.2132 5.17688 22.9969 4.20938 23.3644 3.05813C22.4119 3.6225 21.3526 4.03313 20.2294 4.25438C19.3294 3.29438 18.0469 2.69626 16.6276 2.69626C13.9013 2.69626 11.6907 4.90501 11.6907 7.63126C11.6907 8.01751 11.7357 8.39438 11.82 8.75626C7.71755 8.55001 4.08192 6.58501 1.6463 3.59814C1.22067 4.32939 0.978801 5.17688 0.978801 6.08063C0.978801 7.79251 1.8488 9.30376 3.17443 10.1906C2.36443 10.1644 1.60317 9.94126 0.937549 9.57188C0.937549 9.59251 0.937549 9.61314 0.937549 9.63376C0.937549 12.0263 2.64005 14.0194 4.89567 14.475C4.48318 14.5875 4.0463 14.6475 3.5963 14.6475C3.27755 14.6475 2.96817 14.6175 2.6663 14.5575C3.2963 16.5169 5.1188 17.9475 7.27692 17.9869C5.58943 19.3106 3.4613 20.0981 1.14755 20.0981C0.748175 20.0981 0.356298 20.0756 -0.0280762 20.0288C2.15442 21.4313 4.74942 22.2469 7.53755 22.2469C16.6163 22.2469 21.5813 14.7263 21.5813 8.20501C21.5813 7.99126 21.5757 7.77564 21.5682 7.56564C22.5319 6.87001 23.3682 6.00001 24.0301 5.01001Z" fill="#A9A9A9"/>
</g>
<defs>
<clipPath id="clip0_93_209">
<rect width="24" height="24" fill="white"/>
</clipPath>
</defs>
</svg>
