<svg width="24" height="24" viewBox="0 0 24 24" fill="none" xmlns="http://www.w3.org/2000/svg">
<path d="M7.67992 22.08H16.3199C19.5009 22.08 22.0799 19.501 22.0799 16.32V7.68001C22.0799 4.49905 19.5009 1.92001 16.3199 1.92001H7.67992C4.49896 1.92001 1.91992 4.49905 1.91992 7.68001V16.32C1.91992 19.501 4.49896 22.08 7.67992 22.08Z" stroke="#A9A9A9" stroke-width="0.96" stroke-miterlimit="10"/>
<path d="M12 16.8C14.6509 16.8 16.8 14.651 16.8 12C16.8 9.34905 14.6509 7.20001 12 7.20001C9.34898 7.20001 7.19995 9.34905 7.19995 12C7.19995 14.651 9.34898 16.8 12 16.8Z" stroke="#A9A9A9" stroke-width="0.96" stroke-miterlimit="10"/>
<path d="M17.76 7.2C18.2902 7.2 18.72 6.77019 18.72 6.24C18.72 5.70981 18.2902 5.28 17.76 5.28C17.2299 5.28 16.8 5.70981 16.8 6.24C16.8 6.77019 17.2299 7.2 17.76 7.2Z" fill="#A9A9A9"/>
</svg>
