<svg width="80" height="12" viewBox="0 0 80 12" fill="none" xmlns="http://www.w3.org/2000/svg">
<path d="M10.962 4.8125C10.9184 4.67608 10.8371 4.55474 10.7276 4.4624C10.6181 4.37007 10.4848 4.31049 10.343 4.2905L7.8175 3.9235L6.688 1.635C6.62471 1.50655 6.52672 1.39839 6.40513 1.32275C6.28353 1.24712 6.1432 1.20703 6 1.20703C5.85681 1.20703 5.71647 1.24712 5.59488 1.32275C5.47329 1.39839 5.3753 1.50655 5.312 1.635L4.1825 3.9235L1.657 4.2905C1.51519 4.31101 1.38195 4.37082 1.27238 4.46315C1.1628 4.55547 1.08125 4.67663 1.03697 4.81291C0.992692 4.94918 0.987444 5.09513 1.02182 5.23423C1.0562 5.37334 1.12884 5.50004 1.2315 5.6L3.0595 7.3815L2.628 9.897C2.60352 10.0381 2.61909 10.1833 2.67295 10.316C2.72681 10.4487 2.81681 10.5637 2.93272 10.6478C3.04863 10.732 3.18581 10.7819 3.32868 10.792C3.47156 10.8021 3.6144 10.772 3.741 10.705L6 9.5165L8.259 10.704C8.38568 10.7706 8.52847 10.8005 8.67123 10.7902C8.81399 10.7799 8.95102 10.7298 9.06682 10.6457C9.18262 10.5616 9.27258 10.4468 9.32651 10.3142C9.38044 10.1816 9.3962 10.0366 9.372 9.8955L8.9405 7.3805L10.7685 5.6C10.8717 5.50029 10.9446 5.37347 10.9788 5.23414C11.013 5.09482 11.0072 4.94866 10.962 4.8125Z" fill="#2F2F38"/>
<path d="M61.962 4.8125C61.9184 4.67608 61.8371 4.55474 61.7276 4.4624C61.6181 4.37007 61.4848 4.31049 61.343 4.2905L58.8175 3.9235L57.688 1.635C57.6247 1.50655 57.5267 1.39839 57.4051 1.32275C57.2835 1.24712 57.1432 1.20703 57 1.20703C56.8568 1.20703 56.7165 1.24712 56.5949 1.32275C56.4733 1.39839 56.3753 1.50655 56.312 1.635L55.1825 3.9235L52.657 4.2905C52.5152 4.31101 52.382 4.37082 52.2724 4.46315C52.1628 4.55547 52.0813 4.67663 52.037 4.81291C51.9927 4.94918 51.9874 5.09513 52.0218 5.23423C52.0562 5.37334 52.1288 5.50004 52.2315 5.6L54.0595 7.3815L53.628 9.897C53.6035 10.0381 53.6191 10.1833 53.673 10.316C53.7268 10.4487 53.8168 10.5637 53.9327 10.6478C54.0486 10.732 54.1858 10.7819 54.3287 10.792C54.4716 10.8021 54.6144 10.772 54.741 10.705L57 9.5165L59.259 10.704C59.3857 10.7706 59.5285 10.8005 59.6712 10.7902C59.814 10.7799 59.951 10.7298 60.0668 10.6457C60.1826 10.5616 60.2726 10.4468 60.3265 10.3142C60.3804 10.1816 60.3962 10.0366 60.372 9.8955L59.9405 7.3805L61.7685 5.6C61.8717 5.50029 61.9446 5.37347 61.9788 5.23414C62.013 5.09482 62.0072 4.94866 61.962 4.8125Z" fill="#2F2F38"/>
<path d="M27.962 4.8125C27.9184 4.67608 27.8371 4.55474 27.7276 4.4624C27.6181 4.37007 27.4848 4.31049 27.343 4.2905L24.8175 3.9235L23.688 1.635C23.6247 1.50655 23.5267 1.39839 23.4051 1.32275C23.2835 1.24712 23.1432 1.20703 23 1.20703C22.8568 1.20703 22.7165 1.24712 22.5949 1.32275C22.4733 1.39839 22.3753 1.50655 22.312 1.635L21.1825 3.9235L18.657 4.2905C18.5152 4.31101 18.382 4.37082 18.2724 4.46315C18.1628 4.55547 18.0813 4.67663 18.037 4.81291C17.9927 4.94918 17.9874 5.09513 18.0218 5.23423C18.0562 5.37334 18.1288 5.50004 18.2315 5.6L20.0595 7.3815L19.628 9.897C19.6035 10.0381 19.6191 10.1833 19.673 10.316C19.7268 10.4487 19.8168 10.5637 19.9327 10.6478C20.0486 10.732 20.1858 10.7819 20.3287 10.792C20.4716 10.8021 20.6144 10.772 20.741 10.705L23 9.5165L25.259 10.704C25.3857 10.7706 25.5285 10.8005 25.6712 10.7902C25.814 10.7799 25.951 10.7298 26.0668 10.6457C26.1826 10.5616 26.2726 10.4468 26.3265 10.3142C26.3804 10.1816 26.3962 10.0366 26.372 9.8955L25.9405 7.3805L27.7685 5.6C27.8717 5.50029 27.9446 5.37347 27.9788 5.23414C28.013 5.09482 28.0072 4.94866 27.962 4.8125Z" fill="#2F2F38"/>
<path d="M44.962 4.8125C44.9184 4.67608 44.8371 4.55474 44.7276 4.4624C44.6181 4.37007 44.4848 4.31049 44.343 4.2905L41.8175 3.9235L40.688 1.635C40.6247 1.50655 40.5267 1.39839 40.4051 1.32275C40.2835 1.24712 40.1432 1.20703 40 1.20703C39.8568 1.20703 39.7165 1.24712 39.5949 1.32275C39.4733 1.39839 39.3753 1.50655 39.312 1.635L38.1825 3.9235L35.657 4.2905C35.5152 4.31101 35.382 4.37082 35.2724 4.46315C35.1628 4.55547 35.0813 4.67663 35.037 4.81291C34.9927 4.94918 34.9874 5.09513 35.0218 5.23423C35.0562 5.37334 35.1288 5.50004 35.2315 5.6L37.0595 7.3815L36.628 9.897C36.6035 10.0381 36.6191 10.1833 36.673 10.316C36.7268 10.4487 36.8168 10.5637 36.9327 10.6478C37.0486 10.732 37.1858 10.7819 37.3287 10.792C37.4716 10.8021 37.6144 10.772 37.741 10.705L40 9.5165L42.259 10.704C42.3857 10.7706 42.5285 10.8005 42.6712 10.7902C42.814 10.7799 42.951 10.7298 43.0668 10.6457C43.1826 10.5616 43.2726 10.4468 43.3265 10.3142C43.3804 10.1816 43.3962 10.0366 43.372 9.8955L42.9405 7.3805L44.7685 5.6C44.8717 5.50029 44.9446 5.37347 44.9788 5.23414C45.013 5.09482 45.0072 4.94866 44.962 4.8125Z" fill="#2F2F38"/>
<path d="M78.962 4.8125C78.9184 4.67608 78.8371 4.55474 78.7276 4.4624C78.6181 4.37007 78.4848 4.31049 78.343 4.2905L75.8175 3.9235L74.688 1.635C74.6247 1.50655 74.5267 1.39839 74.4051 1.32275C74.2835 1.24712 74.1432 1.20703 74 1.20703C73.8568 1.20703 73.7165 1.24712 73.5949 1.32275C73.4733 1.39839 73.3753 1.50655 73.312 1.635L72.1825 3.9235L69.657 4.2905C69.5152 4.31101 69.382 4.37082 69.2724 4.46315C69.1628 4.55547 69.0813 4.67663 69.037 4.81291C68.9927 4.94918 68.9874 5.09513 69.0218 5.23423C69.0562 5.37334 69.1288 5.50004 69.2315 5.6L71.0595 7.3815L70.628 9.897C70.6035 10.0381 70.6191 10.1833 70.673 10.316C70.7268 10.4487 70.8168 10.5637 70.9327 10.6478C71.0486 10.732 71.1858 10.7819 71.3287 10.792C71.4716 10.8021 71.6144 10.772 71.741 10.705L74 9.5165L76.259 10.704C76.3857 10.7706 76.5285 10.8005 76.6712 10.7902C76.814 10.7799 76.951 10.7298 77.0668 10.6457C77.1826 10.5616 77.2726 10.4468 77.3265 10.3142C77.3804 10.1816 77.3962 10.0366 77.372 9.8955L76.9405 7.3805L78.7685 5.6C78.8717 5.50029 78.9446 5.37347 78.9788 5.23414C79.013 5.09482 79.0072 4.94866 78.962 4.8125Z" fill="#2F2F38"/>
</svg>
