<svg width="12" height="12" viewBox="0 0 12 12" fill="none" xmlns="http://www.w3.org/2000/svg">
<path d="M10.9621 4.8125C10.9185 4.67608 10.8372 4.55474 10.7277 4.46241C10.6182 4.37007 10.4849 4.31049 10.3431 4.2905L7.81761 3.9235L6.68811 1.635C6.62481 1.50655 6.52682 1.39839 6.40523 1.32276C6.28364 1.24712 6.1433 1.20704 6.00011 1.20704C5.85691 1.20704 5.71658 1.24712 5.59499 1.32276C5.4734 1.39839 5.37541 1.50655 5.31211 1.635L4.18261 3.9235L1.65711 4.2905C1.5153 4.31102 1.38206 4.37083 1.27248 4.46315C1.1629 4.55548 1.08136 4.67664 1.03708 4.81291C0.992798 4.94919 0.987551 5.09514 1.02193 5.23424C1.05631 5.37334 1.12894 5.50004 1.23161 5.6L3.05961 7.3815L2.62811 9.897C2.60362 10.0381 2.61919 10.1833 2.67306 10.316C2.72692 10.4487 2.81691 10.5637 2.93282 10.6478C3.04873 10.732 3.18591 10.7819 3.32879 10.792C3.47166 10.8021 3.61451 10.772 3.74111 10.705L6.00011 9.5165L8.25911 10.704C8.38579 10.7706 8.52858 10.8005 8.67134 10.7902C8.8141 10.7799 8.95113 10.7298 9.06693 10.6457C9.18273 10.5616 9.27269 10.4468 9.32662 10.3142C9.38055 10.1816 9.39631 10.0366 9.37211 9.8955L8.94061 7.3805L10.7686 5.6C10.8718 5.50029 10.9447 5.37347 10.9789 5.23415C11.0131 5.09482 11.0073 4.94866 10.9621 4.8125Z" fill="#2F2F38"/>
</svg>
